<svg width="10" height="10" viewBox="0 0 10 10" fill="none" xmlns="http://www.w3.org/2000/svg">
<path d="M4.52282 4.96644L0.0965723 9.39269C-0.0263965 9.51566 -0.0263965 9.71488 0.0965723 9.83785C0.157979 9.89941 0.238604 9.93004 0.319072 9.93004C0.399697 9.93004 0.480166 9.89941 0.541572 9.83785L5.0011 5.37832L9.46064 9.83785C9.5222 9.89941 9.60267 9.93004 9.68314 9.93004C9.7636 9.93004 9.84423 9.89941 9.90564 9.83785C10.0286 9.71488 10.0286 9.51566 9.90564 9.39269L5.47954 4.96644L9.9086 0.537067C10.0316 0.414099 10.0316 0.21488 9.9086 0.091911C9.78564 -0.0309015 9.58642 -0.0309015 9.4636 0.091911L5.00126 4.55457L0.538447 0.0920673C0.415479 -0.0307452 0.216416 -0.0307452 0.0934473 0.0920673C-0.0295215 0.215036 -0.0295215 0.414255 0.0934473 0.537224L4.52282 4.96644Z" fill="#222222" fill-opacity="0.2"/>
</svg>
