<svg width="219" height="86" viewBox="0 0 219 86" fill="none" xmlns="http://www.w3.org/2000/svg">
<g clip-path="url(#clip0)">
<path opacity="0.7" d="M40.1146 80.3229C46.5094 76.5945 46.6524 64.7554 40.4341 53.8796C34.2158 43.0037 23.9908 37.2095 17.5961 40.9379C11.2013 44.6663 11.0583 56.5054 17.2766 67.3812C23.4949 78.2571 33.7198 84.0513 40.1146 80.3229Z" fill="#0075F0"/>
<path opacity="0.29" d="M17.7037 13.2576C-9.59256 64.3843 4.62966 60.1206 31.7778 80.4291C34.0741 52.3038 71.1852 39.6998 17.7037 13.2576Z" fill="#D52B1E"/>
<path opacity="0.3" d="M29.4815 8.64752C2.18521 59.7742 16.4074 55.5105 43.5556 75.8191C45.8519 47.7312 82.963 35.0898 29.4815 8.64752Z" fill="#0039A6"/>
<path opacity="0.1" d="M41.2593 3C13.963 54.1267 28.1852 49.863 55.3334 70.1716C57.6297 42.0837 94.7408 29.4423 41.2593 3Z" fill="#0039A6"/>
<path opacity="0.7" d="M33.1164 49.9616C42.9731 44.7477 49.0555 36.8425 46.7017 32.3049C44.3479 27.7673 34.4493 28.3155 24.5925 33.5293C14.7358 38.7432 8.65343 46.6483 11.0072 51.186C13.361 55.7236 23.2596 55.1754 33.1164 49.9616Z" fill="#FF7622"/>
<path opacity="0.7" d="M41.037 43.6919C44.4939 43.6919 47.2963 38.1829 47.2963 31.3871C47.2963 24.5913 44.4939 19.0823 41.037 19.0823C37.5801 19.0823 34.7778 24.5913 34.7778 31.3871C34.7778 38.1829 37.5801 43.6919 41.037 43.6919Z" fill="#EB5A06"/>
<path opacity="0.95" d="M42.2222 83C50.4451 83 57.1111 76.2686 57.1111 67.9649C57.1111 59.6613 50.4451 52.9299 42.2222 52.9299C33.9993 52.9299 27.3333 59.6613 27.3333 67.9649C27.3333 76.2686 33.9993 83 42.2222 83Z" fill="#FFD62D"/>
<path opacity="0.8" d="M35.9757 62.2162C41.3434 58.7773 44.511 54.1087 43.0507 51.7886C41.5904 49.4685 36.0553 50.3754 30.6876 53.8143C25.3199 57.2532 22.1523 61.9218 23.6126 64.242C25.0728 66.5621 30.608 65.6551 35.9757 62.2162Z" fill="#0057C0"/>
<path opacity="0.7" d="M44.4516 53.2423C44.682 50.7537 43.3332 48.5913 41.4391 48.4125C39.5449 48.2337 37.8227 50.1062 37.5923 52.5948C37.362 55.0834 38.7107 57.2458 40.6049 57.4246C42.499 57.6034 44.2212 55.7309 44.4516 53.2423Z" fill="#0057C0"/>
</g>
<path d="M84.48 56L84.46 47.62L80.34 54.52H78.9L74.78 47.78V56H71.74V42H74.42L79.66 50.7L84.82 42H87.5L87.52 56H84.48ZM101.838 53.4V56H90.9978V42H101.578V44.6H94.2178V47.64H100.718V50.16H94.2178V53.4H101.838ZM118.895 53.36V58.9H115.895V56H106.015V58.9H103.015L103.035 53.36H103.595C104.435 53.3333 105.028 52.72 105.375 51.52C105.722 50.32 105.935 48.6067 106.015 46.38L106.175 42H116.935V53.36H118.895ZM108.875 46.68C108.808 48.3467 108.668 49.7467 108.455 50.88C108.242 52 107.915 52.8267 107.475 53.36H113.735V44.64H108.935L108.875 46.68Z" fill="#2F75EC"/>
<path d="M130.556 53H124.056L122.816 56H119.496L125.736 42H128.936L135.196 56H131.796L130.556 53ZM129.536 50.54L127.316 45.18L125.096 50.54H129.536ZM149.893 42V56H146.653V50.26H140.293V56H137.053V42H140.293V47.52H146.653V42H149.893ZM162.88 53H156.38L155.14 56H151.82L158.06 42H161.26L167.52 56H164.12L162.88 53ZM161.86 50.54L159.64 45.18L157.42 50.54H161.86ZM181.974 42V56H178.774V44.64H173.974L173.874 47.56C173.807 49.5467 173.647 51.16 173.394 52.4C173.141 53.6267 172.714 54.5733 172.114 55.24C171.527 55.8933 170.701 56.22 169.634 56.22C169.194 56.22 168.661 56.1467 168.034 56L168.234 53.26C168.407 53.3133 168.601 53.34 168.814 53.34C169.587 53.34 170.127 52.8867 170.434 51.98C170.741 51.06 170.934 49.6267 171.014 47.68L171.214 42H181.974ZM185.47 42H188.69V51.12L195.37 42H198.41V56H195.21V46.9L188.53 56H185.47V42ZM209.856 48.7C210.67 48.98 211.303 49.42 211.756 50.02C212.223 50.6067 212.456 51.2933 212.456 52.08C212.456 52.9333 212.176 53.6733 211.616 54.3C211.056 54.9267 210.296 55.4067 209.336 55.74C208.39 56.0733 207.35 56.24 206.216 56.24C205.256 56.24 204.296 56.12 203.336 55.88C202.39 55.64 201.49 55.2733 200.636 54.78L201.636 52.46C202.25 52.8333 202.923 53.12 203.656 53.32C204.403 53.5067 205.13 53.6 205.836 53.6C206.796 53.6 207.59 53.4267 208.216 53.08C208.856 52.7333 209.176 52.2467 209.176 51.62C209.176 51.1 208.956 50.7067 208.516 50.44C208.09 50.1733 207.503 50.04 206.756 50.04H203.336V47.6H206.516C207.17 47.6 207.676 47.4667 208.036 47.2C208.41 46.9333 208.596 46.5667 208.596 46.1C208.596 45.5533 208.33 45.1267 207.796 44.82C207.276 44.5133 206.603 44.36 205.776 44.36C205.163 44.36 204.53 44.4467 203.876 44.62C203.223 44.78 202.603 45.0267 202.016 45.36L201.036 42.84C202.516 42.08 204.116 41.7 205.836 41.7C206.93 41.7 207.936 41.86 208.856 42.18C209.776 42.5 210.51 42.9667 211.056 43.58C211.603 44.1933 211.876 44.9067 211.876 45.72C211.876 46.3867 211.696 46.98 211.336 47.5C210.976 48.02 210.483 48.42 209.856 48.7Z" fill="#FFD838"/>
<defs>
<clipPath id="clip0">
<rect width="67" height="80" fill="white" transform="translate(3 3)"/>
</clipPath>
</defs>
</svg>
