<svg width="38" height="50" viewBox="0 0 38 50" fill="none" xmlns="http://www.w3.org/2000/svg">
<path d="M19.0001 0C9.01521 0 0.891968 8.12324 0.891968 18.108C0.891968 30.4994 17.0969 48.6907 17.7869 49.4591C18.4349 50.1809 19.5664 50.1796 20.2133 49.4591C20.9032 48.6907 37.1082 30.4994 37.1082 18.108C37.108 8.12324 28.9848 0 19.0001 0ZM19.0001 27.2187C13.9764 27.2187 9.88952 23.1316 9.88952 18.108C9.88952 13.0844 13.9765 8.99746 19.0001 8.99746C24.0236 8.99746 28.1105 13.0845 28.1105 18.1081C28.1105 23.1317 24.0236 27.2187 19.0001 27.2187Z" fill="#2F75EC"/>
</svg>
